<?xml version="1.0" encoding="UTF-8" standalone="no"?>
<svg
   width="18"
   height="19"
   viewBox="0 0 18 19"
   fill="none"
   version="1.1"
   id="svg2"
   sodipodi:docname="Trash.svg"
   inkscape:version="1.3 (0e150ed6c4, 2023-07-21)"
   xmlns:inkscape="http://www.inkscape.org/namespaces/inkscape"
   xmlns:sodipodi="http://sodipodi.sourceforge.net/DTD/sodipodi-0.dtd"
   xmlns="http://www.w3.org/2000/svg"
   xmlns:svg="http://www.w3.org/2000/svg">
  <defs
     id="defs2" />
  <sodipodi:namedview
     id="namedview2"
     pagecolor="#ffffff"
     bordercolor="#000000"
     borderopacity="0.25"
     inkscape:showpageshadow="2"
     inkscape:pageopacity="0.0"
     inkscape:pagecheckerboard="0"
     inkscape:deskcolor="#d1d1d1"
     inkscape:zoom="26.315789"
     inkscape:cx="8.987"
     inkscape:cy="9.5"
     inkscape:window-width="1280"
     inkscape:window-height="738"
     inkscape:window-x="-6"
     inkscape:window-y="-6"
     inkscape:window-maximized="1"
     inkscape:current-layer="svg2"
     showguides="false" />
  <path
     d="m 2.8027483,17.44199 c 0.057914,0.623585 0.5791187,1.077101 1.2161511,1.077101 h 9.9994796 c 0.637003,0 1.15818,-0.472413 1.216141,-1.077101 L 16.354123,5.9528586 H 1.683117 Z"
     fill="#ffffff"
     id="path1"
     style="stroke:#000000;stroke-width:1;stroke-dasharray:none;stroke-opacity:1" />
  <g
     inkscape:groupmode="layer"
     id="layer1"
     inkscape:label="Layer 1" />
  <path
     d="M 15.780213,2.0593937 H 11.379836 V 1.5523332 c 0,-0.5545966 -0.486953,-0.99827519 -1.095729,-0.99827519 H 8.0752631 c -0.6087418,0 -1.0957369,0.44367859 -1.0957369,0.99827519 V 2.0593937 H 2.5617949 c -0.6087426,0 -1.0957369,0.4436778 -1.0957369,0.9982752 0,0.5546052 0.4869943,0.9982831 1.0957369,0.9982831 H 15.780213 c 0.608776,0 1.095729,-0.4436779 1.095729,-0.9982831 0,-0.5545974 -0.486953,-0.9982752 -1.095729,-0.9982752 z"
     fill="white"
     id="path3"
     style="opacity:1;fill:#ffffff;stroke:#000000;stroke-width:1;stroke-dasharray:none;stroke-opacity:1;fill-opacity:1" />
</svg>
